Coordinates
version=1
nRows=6
nColumns=107
inDegrees=yes

Units are S.I. units (second, meters, Newtons, ...)
If the header above contains a line with 'inDegrees', this indicates whether rotational values are in degrees (yes) or radians (no).

endheader
time	sternoclavicular_r2	sternoclavicular_r3	unrotscap_r3	unrotscap_r2	acromioclavicular_r2	acromioclavicular_r3	acromioclavicular_r1	unrothum_r1	unrothum_r3	unrothum_r2	elv_angle	shoulder_elv	shoulder1_r2	shoulder_rot	elbow_flexion	pro_sup	deviation	flexion	proximal_distal_r1	proximal_distal_r3	cmc_flexion	cmc_abduction	mp_flexion	ip_flexion	mcp2_flexion	mcp2_abduction	pm2_flexion	md2_flexion	mcp3_flexion	mcp3_abduction	pm3_flexion	md3_flexion	mcp4_flexion	mcp4_abduction	pm4_flexion	md4_flexion	mcp5_flexion	mcp5_abduction	pm5_flexion	md5_flexion	bicpt_tx	bicpt_ty	bicpt_tz	bicpt2_tx	bicpt2_ty	bicpt2_tz	ptpt_tx	ptpt_ty	ptpt_tz	FCUpt_tx	FCUpt_ty	FCUpt_tz	EDCpt_tx	EDCpt_ty	EDCpt_tz	APLpt_tx	APLpt_ty	APLpt_tz	FPLpt_tx	FPLpt_ty	FPLpt_tz	FPLpt2_tx	FPLpt2_ty	FPLpt2_tz	PEC1pt2_tx	PEC1pt2_ty	PEC1pt2_tz	PEC1pt3_tx	PEC1pt3_ty	PEC1pt3_tz	PEC2pt2_tx	PEC2pt2_ty	PEC2pt2_tz	PEC2pt3_tx	PEC2pt3_ty	PEC2pt3_tz	PEC3pt2_tx	PEC3pt2_ty	PEC3pt2_tz	PEC3pt3_tx	PEC3pt3_ty	PEC3pt3_tz	DELT2pt2a_tx	DELT2pt2a_ty	DELT2pt2a_tz	DELT2pt2_tx	DELT2pt2_ty	DELT2pt2_tz	LAT1pt2_tx	LAT1pt2_ty	LAT1pt2_tz	LAT1pt3_tx	LAT1pt3_ty	LAT1pt3_tz	LAT2pt2_tx	LAT2pt2_ty	LAT2pt2_tz	LAT2pt3_tx	LAT2pt3_ty	LAT2pt3_tz	LAT3pt2_tx	LAT3pt2_ty	LAT3pt2_tz	LAT3pt3_tx	LAT3pt3_ty	LAT3pt3_tz
      0.90000000	     -0.31944775	      0.13530299	     -0.13530299	      0.31944775	     -0.06468167	      0.52273452	      0.23496557	     -0.23496557	     -0.52273452	      0.06468167	    100.93315412	     75.63209434	     -1.76161586	    -31.02919455	     31.33589757	     75.47556135	      0.28805266	      0.57627162	      0.32301293	      0.28813581	     41.40664466	     -7.30661362	     15.37457742	     -4.50265297	    -38.46815857	     13.69781066	     12.95813175	      6.93367868	    -32.08769254	     -7.32582825	     23.58692651	     19.92649514	    -15.36645799	    -10.19334121	     11.13651143	     23.69508135	     34.95763458	    -14.35197585	    -17.72583600	      4.84696700	      0.00093649	     -0.03119157	     -0.00487851	      0.01520110	     -0.01871255	     -0.00280068	      0.00197321	     -0.06850605	     -0.00612996	      0.01154609	     -0.18257841	     -0.00016437	     -0.00905705	      0.00301756	     -0.00044930	     -0.00086771	     -0.00034709	     -0.00173543	     -0.00111067	     -0.00333202	     -0.00187426	     -0.00000844	     -0.00008266	     -0.00009919	      0.00247905	      0.00869770	      0.00605057	     -0.00810945	      0.01958033	     -0.01857190	      0.00247905	      0.00869770	      0.00605057	      0.00054623	      0.01815172	     -0.00953806	      0.00392764	      0.00483668	      0.01591780	      0.00000000	      0.00764926	      0.00000000	     -0.00710102	     -0.03281595	     -0.00630642	      0.01932717	     -0.00079237	     -0.00800633	     -0.00088238	      0.01479029	     -0.00605057	      0.00243704	      0.02134508	     -0.01764750	     -0.00592452	      0.01281545	     -0.00542030	     -0.01235325	      0.02705951	     -0.03029488	     -0.02319386	      0.01432809	     -0.00726909	     -0.01537854	      0.03126129	     -0.03785810
      0.93333333	     -0.32031709	      0.13567120	     -0.13567120	      0.32031709	     -0.06485770	      0.52415708	      0.23560500	     -0.23560500	     -0.52415708	      0.06485770	    100.71808602	     75.83791833	     -1.75786222	    -29.95953452	     31.25938967	     74.44915365	      0.30685741	      0.61124852	      0.33937748	      0.30562426	     41.45804659	     -7.24738532	     15.30484475	     -4.21126313	    -38.47695241	     13.66691698	     13.46673820	      6.54905534	    -31.76842702	     -7.15527114	     23.08259297	     19.90219797	    -15.12034094	    -10.04810555	     10.65601285	     23.96975351	     34.99674759	    -14.35404988	    -18.21715212	      4.85787821	      0.00093396	     -0.03118280	     -0.00487710	      0.01528128	     -0.01869177	     -0.00296056	      0.00204905	     -0.06845701	     -0.00604728	      0.01143167	     -0.18260995	     -0.00018411	     -0.00893388	      0.00296473	     -0.00042248	     -0.00093828	     -0.00037531	     -0.00187657	     -0.00120100	     -0.00360301	     -0.00202669	     -0.00000835	     -0.00008158	     -0.00009790	      0.00248580	      0.00872137	      0.00606704	     -0.00813152	      0.01963361	     -0.01862244	      0.00248580	      0.00872137	      0.00606704	      0.00054772	      0.01820112	     -0.00956401	      0.00393546	      0.00484984	      0.01593706	      0.00000000	      0.00769123	      0.00000000	     -0.00712034	     -0.03290526	     -0.00634127	      0.01886008	     -0.00075571	     -0.00747911	     -0.00088478	      0.01483054	     -0.00606704	      0.00244367	      0.02140316	     -0.01769553	     -0.00594064	      0.01285032	     -0.00543506	     -0.01238687	      0.02713314	     -0.03037733	     -0.02325698	      0.01436708	     -0.00728887	     -0.01542039	      0.03134637	     -0.03796112
      0.96666667	     -0.32016380	      0.13560627	     -0.13560627	      0.32016380	     -0.06482666	      0.52390624	      0.23549225	     -0.23549225	     -0.52390624	      0.06482666	    100.76394439	     75.80162521	     -1.75866260	    -30.19503244	     31.24067744	     74.21804086	      0.30656485	      0.61236472	      0.33912672	      0.30618236	     41.53145136	     -7.31495194	     15.32727574	     -4.20182435	    -38.48500076	     13.62051301	     13.47384859	      6.55274847	    -31.73264958	     -7.15310739	     23.10097914	     19.90476410	    -15.09026319	    -10.04168714	     10.66487945	     23.96770005	     35.01669915	    -14.35548628	    -18.20604871	      4.86035877	      0.00093334	     -0.03118066	     -0.00487675	      0.01529900	     -0.01868668	     -0.00299636	      0.00206612	     -0.06844596	     -0.00602866	      0.01140596	     -0.18261701	     -0.00018844	     -0.00890614	      0.00295288	     -0.00041652	     -0.00094057	     -0.00037623	     -0.00188114	     -0.00120393	     -0.00361179	     -0.00203163	     -0.00000822	     -0.00008003	     -0.00009604	      0.00248461	      0.00871719	      0.00606414	     -0.00812763	      0.01962422	     -0.01861353	      0.00248461	      0.00871719	      0.00606414	      0.00054746	      0.01819241	     -0.00955944	      0.00393409	      0.00484752	      0.01593367	      0.00000000	      0.00768382	      0.00000000	     -0.00711694	     -0.03288951	     -0.00633512	      0.01896422	     -0.00076376	     -0.00759401	     -0.00088435	      0.01482344	     -0.00606414	      0.00244250	      0.02139292	     -0.01768706	     -0.00593780	      0.01284418	     -0.00543245	     -0.01238094	      0.02712016	     -0.03036279	     -0.02324585	      0.01436021	     -0.00728538	     -0.01541301	      0.03133136	     -0.03794296
      1.00000000	     -0.31804015	      0.13470680	     -0.13470680	      0.31804015	     -0.06439666	      0.52043116	      0.23393023	     -0.23393023	     -0.52043116	      0.06439666	    101.34530585	     75.29883282	     -1.76880927	    -32.79199761	     31.36875211	     75.94388269	      0.29431972	      0.60428705	      0.32853092	      0.30214353	     41.62849029	     -7.76544332	     15.83301702	     -3.29016311	    -39.08929592	     13.62605192	     14.42015610	      6.84986415	    -31.72355503	     -6.54785509	     23.19115402	     19.25831660	    -15.12383615	     -9.54471072	     10.13729812	     23.46769799	     34.12443298	    -14.36172568	    -18.27134010	      4.84969165	      0.00093758	     -0.03119534	     -0.00487911	      0.01516373	     -0.01872148	     -0.00272725	      0.00193860	     -0.06852842	     -0.00616769	      0.01159840	     -0.18256392	     -0.00015511	     -0.00911324	      0.00304177	     -0.00046172	     -0.00092407	     -0.00036963	     -0.00184815	     -0.00118281	     -0.00354844	     -0.00199600	     -0.00000805	     -0.00007797	     -0.00009357	      0.00246813	      0.00865937	      0.00602391	     -0.00807372	      0.01949405	     -0.01849006	      0.00246813	      0.00865937	      0.00602391	      0.00054383	      0.01807174	     -0.00949603	      0.00391494	      0.00481537	      0.01588640	      0.00000000	      0.00758154	      0.00000000	     -0.00706973	     -0.03267135	     -0.00625019	      0.02006368	     -0.00085346	     -0.00890428	     -0.00087849	      0.01472512	     -0.00602391	      0.00242630	      0.02125102	     -0.01756974	     -0.00589841	      0.01275898	     -0.00539642	     -0.01229882	      0.02694027	     -0.03016139	     -0.02309166	      0.01426496	     -0.00723706	     -0.01531078	      0.03112354	     -0.03769128
      1.03333333	     -0.31782350	      0.13461504	     -0.13461504	      0.31782350	     -0.06435279	      0.52007665	      0.23377087	     -0.23377087	     -0.52007665	      0.06435279	    101.41290642	     75.24753924	     -1.76998912	    -33.16412518	     31.36891406	     75.54978397	      0.29368194	      0.60620665	      0.32797225	      0.30310332	     41.78655194	     -7.89351973	     15.89521674	     -3.26896791	    -39.09092131	     13.52250352	     14.44180674	      6.85926859	    -31.65367601	     -6.51192068	     23.21994740	     19.26503233	    -15.08150508	     -9.52277744	     10.14743032	     23.46417269	     34.13257325	    -14.37648709	    -18.26817045	      4.84921483	      0.00093759	     -0.03119536	     -0.00487912	      0.01519521	     -0.01872152	     -0.00278906	      0.00196772	     -0.06850959	     -0.00613594	      0.01155437	     -0.18257612	     -0.00016291	     -0.00906595	      0.00302140	     -0.00045126	     -0.00092799	     -0.00037119	     -0.00185597	     -0.00118782	     -0.00356347	     -0.00200445	     -0.00000777	     -0.00007460	     -0.00008952	      0.00246645	      0.00865347	      0.00601981	     -0.00806822	      0.01948077	     -0.01847747	      0.00246645	      0.00865347	      0.00601981	      0.00054345	      0.01805942	     -0.00948956	      0.00391298	      0.00481209	      0.01588154	      0.00000000	      0.00757114	      0.00000000	     -0.00706491	     -0.03264910	     -0.00624156	      0.02021371	     -0.00086647	     -0.00909844	     -0.00087789	      0.01471509	     -0.00601981	      0.00242464	      0.02123655	     -0.01755777	     -0.00589440	      0.01275029	     -0.00539274	     -0.01229044	      0.02692192	     -0.03014085	     -0.02307593	      0.01425524	     -0.00723213	     -0.01530035	      0.03110234	     -0.03766561
      1.06666667	     -0.31602850	      0.13385476	     -0.13385476	      0.31602850	     -0.06398934	      0.51713936	      0.23245058	     -0.23245058	     -0.51713936	      0.06398934	    101.94750718	     74.82255623	     -1.77931966	    -35.50514901	     31.55328092	     76.94631771	      0.29306350	      0.63329736	      0.32743009	      0.31664868	     41.72316136	     -8.39591552	     17.34666221	     -2.57982172	    -40.40609221	     13.45239638	     15.66246165	      8.75736538	    -32.42104014	     -5.56192348	     23.73368658	     19.02784891	    -15.66409407	     -8.75517508	      9.37885746	     21.79782176	     32.42262492	    -14.37769965	    -18.16260254	      4.84534692	      0.00094368	     -0.03121649	     -0.00488252	      0.01508201	     -0.01877160	     -0.00256900	      0.00186454	     -0.06857632	     -0.00624844	      0.01171060	     -0.18253269	     -0.00013471	     -0.00923354	      0.00309383	     -0.00048872	     -0.00098382	     -0.00039353	     -0.00196765	     -0.00125930	     -0.00377789	     -0.00212506	     -0.00000788	     -0.00007596	     -0.00009115	      0.00245252	      0.00860460	      0.00598581	     -0.00802265	      0.01937074	     -0.01837311	      0.00245252	      0.00860460	      0.00598581	      0.00054039	      0.01795743	     -0.00943596	      0.00389672	      0.00478491	      0.01584106	      0.00000000	      0.00748530	      0.00000000	     -0.00702501	     -0.03246470	     -0.00617027	      0.02111580	     -0.00094902	     -0.01035348	     -0.00087293	      0.01463198	     -0.00598581	      0.00241095	      0.02111661	     -0.01745861	     -0.00586111	      0.01267828	     -0.00536229	     -0.01222103	      0.02676987	     -0.02997062	     -0.02294560	      0.01417473	     -0.00719129	     -0.01521393	      0.03092668	     -0.03745288
